<?xml version="1.0" encoding="utf-8"?>
<!-- Generator: Adobe Illustrator 22.1.0, SVG Export Plug-In . SVG Version: 6.00 Build 0)  -->
<svg version="1.1" id="Layer_1" xmlns="http://www.w3.org/2000/svg" xmlns:xlink="http://www.w3.org/1999/xlink" x="0px" y="0px"
	 viewBox="0 0 600 175" style="enable-background:new 0 0 600 175;" xml:space="preserve">
<style type="text/css">
	.st0{fill:#FFFFFF;}
</style>
<g>
	<g>
		<g>
			<path class="st0" d="M129.6,66.7h-10.1v20.6h10.2c3.8,0,6.8-0.9,9-2.7c2.2-1.8,3.3-4.3,3.3-7.4v-0.2c0-3.3-1.1-5.9-3.3-7.6
				C136.6,67.6,133.5,66.7,129.6,66.7z"/>
		</g>
		<g>
			<path class="st0" d="M123.9,0C75.5,0,36.4,39.2,36.4,87.5S75.5,175,123.9,175s87.5-39.2,87.5-87.5S172.2,0,123.9,0z M163.4,76.2
				c0,4.6-0.8,8.6-2.5,12c-1.7,3.5-4,6.4-6.9,8.7c-2.9,2.4-6.5,4.1-10.6,5.3c-4.1,1.2-8.5,1.8-13.3,1.8h-10.6v22.1H98.1V48.8h33.2
				c4.9,0,9.3,0.6,13.3,1.8c4,1.2,7.4,3,10.2,5.3c2.8,2.3,5,5.2,6.5,8.6c1.5,3.4,2.3,7.2,2.3,11.5V76.2z"/>
		</g>
	</g>
	<g>
		<path class="st0" d="M244.6,88.2V88c0-21.9,16.4-40,38.7-40c13.8,0,22.1,5.1,30.1,12.4l-4.1,4.2c-6.7-6.5-14.5-11.4-26.1-11.4
			c-18.6,0-32.6,15.1-32.6,34.6V88c0,19.6,14.3,34.8,32.7,34.8c11.2,0,18.8-4.3,26.6-12.1l3.9,3.8c-8.2,8.1-17,13.5-30.7,13.5
			C261,128,244.6,110.4,244.6,88.2z"/>
		<path class="st0" d="M364.6,48.7h5.5l36,77.9h-6.3L390,105l-45.7,0l-9.8,21.7l-6,0L364.6,48.7z M387.6,99.8L367.2,55l-20.4,44.8
			H387.6z"/>
		<path class="st0" d="M421.4,115.4l3.8-4.3c8.5,7.8,16.4,11.5,27.7,11.5c11.6,0,19.6-6.5,19.6-15.4V107c0-8.2-4.3-12.9-21.9-16.5
			c-18.6-3.8-26.1-10.1-26.1-21.8v-0.2c0-11.5,10.5-20.3,24.9-20.3c11.3,0,18.7,3.1,26.5,9.4l-3.6,4.5c-7.3-6.3-14.6-8.7-23.1-8.7
			c-11.4,0-18.9,6.5-18.9,14.6v0.2c0,8.2,4.2,13.2,22.5,16.9c17.9,3.6,25.4,10.1,25.4,21.3v0.2c0,12.5-10.7,21.1-25.6,21.1
			C440.2,127.7,430.7,123.7,421.4,115.4z"/>
		<path class="st0" d="M502.6,49.3h5.7v35.8l49.5,0V49.3h5.7l0,77.4h-5.7l0-36.3h-49.5l0,36.3h-5.7L502.6,49.3z"/>
	</g>
</g>
</svg>
