<?xml version="1.0" encoding="iso-8859-1"?>
<!-- Generator: Adobe Illustrator 19.0.0, SVG Export Plug-In . SVG Version: 6.00 Build 0)  -->
<svg version="1.1" id="Capa_1" xmlns="http://www.w3.org/2000/svg" xmlns:xlink="http://www.w3.org/1999/xlink" x="0px" y="0px"
	 viewBox="0 0 483.552 483.552" style="enable-background:new 0 0 483.552 483.552;" xml:space="preserve">
<g>
	
		<linearGradient id="SVGID_1_" gradientUnits="userSpaceOnUse" x1="-25.1092" y1="559.4253" x2="-25.1092" y2="617.7693" gradientTransform="matrix(8 0 0 -8 442.6497 4943.1631)">
		<stop  offset="0" style="stop-color:#006DF0"/>
		<stop  offset="1" style="stop-color:#00E7F0"/>
	</linearGradient>
	<path style="fill:url(#SVGID_1_);" d="M385.764,336.24H290.3c-4.418,0-8-3.582-8-8s3.582-8,8-8h95.464c44.183,0,80-35.817,80-80
		s-35.817-80-80-80h-1.04c-4.418,0.001-8.001-3.58-8.001-7.999c0-0.362,0.024-0.723,0.073-1.081c0.661-4.946,0.985-9.93,0.968-14.92
		c0.131-66.274-53.489-120.106-119.763-120.236c-55.126-0.109-103.235,37.355-116.637,90.828c-0.998,3.831-4.626,6.375-8.568,6.008
		c-3.665-0.39-7.347-0.59-11.032-0.6c-57.438,0-104,46.562-104,104s46.562,104,104,104h72.088c4.418,0,8,3.582,8,8s-3.582,8-8,8
		h-72.088c-66.274,0-120-53.726-120-120s53.726-120,120-120c1.928,0,3.88,0.056,5.904,0.16C149.559,24.55,225.55-15.95,297.4,5.94
		c57.318,17.463,96.454,70.381,96.364,130.3c0,2.848-0.08,5.6-0.248,8.312c52.847,4.271,92.226,50.574,87.955,103.421
		C477.441,297.839,435.792,336.25,385.764,336.24z"/>
	
		<linearGradient id="SVGID_2_" gradientUnits="userSpaceOnUse" x1="-25.1107" y1="559.4253" x2="-25.1107" y2="617.7693" gradientTransform="matrix(8 0 0 -8 442.6497 4943.1631)">
		<stop  offset="0" style="stop-color:#006DF0"/>
		<stop  offset="1" style="stop-color:#00E7F0"/>
	</linearGradient>
	<path style="fill:url(#SVGID_2_);" d="M326.612,376.072l-76.848,76.856V152.24h-16v300.688l-76.848-76.856l-11.32,11.32
		l96.168,96.16l96.168-96.16L326.612,376.072z"/>
</g>
<g>
</g>
<g>
</g>
<g>
</g>
<g>
</g>
<g>
</g>
<g>
</g>
<g>
</g>
<g>
</g>
<g>
</g>
<g>
</g>
<g>
</g>
<g>
</g>
<g>
</g>
<g>
</g>
<g>
</g>
</svg>
