<?xml version="1.0" encoding="UTF-8"?>
<svg width="292px" height="48px" viewBox="0 0 292 48" version="1.1" xmlns="http://www.w3.org/2000/svg" xmlns:xlink="http://www.w3.org/1999/xlink">
    <!-- Generator: Sketch 47 (45396) - http://www.bohemiancoding.com/sketch -->
    <title>monexlogo</title>
    <desc>Created with Sketch.</desc>
    <defs></defs>
    <g id="Page-1" stroke="none" stroke-width="1" fill="none" fill-rule="evenodd">
        <g id="monexlogo">
            <g id="Untitled-4" transform="translate(1.000000, 0.000000)">
                <polygon id="Shape" fill="#221F1F" fill-rule="nonzero" points="77.2742149 22.1598347 77.1567769 22.157438 74.6186777 29.8747934 72.0254545 22.157438 71.8241322 22.1598347 70.414876 22.1598347 70.0433884 22.157438 73.5569421 32.2930579 73.6695868 32.6357851 75.5677686 32.628595 79.3257851 22.157438 78.7985124 22.1598347"></polygon>
                <path d="M91.2780992,26.4642975 C90.2547107,26.0616529 89.6795041,25.8028099 89.6795041,25.1029752 C89.6795041,24.304876 90.1636364,23.866281 91.0432231,23.866281 C91.6615702,23.866281 92.2343802,24.0292562 92.6226446,24.3168595 C92.6226446,24.3168595 92.737686,24.4103306 92.7712397,24.446281 C92.8047934,24.4822314 92.9533884,24.6476033 92.9533884,24.6476033 L93.9671901,23.1185124 C93.9671901,23.1185124 93.8161983,22.9195868 93.725124,22.8404959 C93.6340496,22.761405 93.4471074,22.62 93.1139669,22.4666116 C92.6370248,22.243719 91.9084298,22.0160331 90.9880992,22.0160331 C89.1066942,22.0160331 87.7429752,23.3318182 87.7429752,25.143719 C87.7429752,27.0970248 89.2073554,27.6722314 90.3817355,28.1323967 C91.4314876,28.5470248 92.078595,28.8394215 92.078595,29.6399174 C92.078595,30.5171074 91.5561157,30.9628926 90.5255372,30.9628926 C90.1300826,30.9628926 89.6195868,30.8430579 89.2289256,30.677686 C89.0371901,30.598595 88.9005785,30.5290909 88.7591736,30.4092562 C88.622562,30.2942149 88.4380165,30.0785124 88.4380165,30.0785124 L87.2995868,31.6028099 L87.5368595,31.8017355 L87.6255372,31.8664463 C88.5027273,32.5614876 89.813719,32.8131405 90.4776033,32.8131405 C92.188843,32.8131405 94.0127273,31.9766942 94.0127273,29.6279339 C94.0127273,27.5356198 92.4956198,26.9412397 91.2780992,26.4642975" id="Shape" fill="#221F1F" fill-rule="nonzero"></path>
                <path d="M121.989339,30.7879339 L120.234959,30.7879339 L120.234959,24.0100826 L121.989339,24.0100826 C123.405785,24.0100826 124.213471,24.8105785 124.213471,26.2054545 L124.213471,28.6141322 C124.213471,30.505124 122.820992,30.7879339 121.989339,30.7879339 M121.989339,22.1598347 L118.600413,22.1598347 L118.32719,22.157438 L118.32719,32.3649587 L118.329587,32.6381818 L121.986942,32.6381818 C124.553802,32.6381818 126.147603,31.147438 126.147603,28.741157 L126.147603,26.1 C126.152397,23.6721488 124.558595,22.1598347 121.989339,22.1598347" id="Shape" fill="#221F1F" fill-rule="nonzero"></path>
                <path d="M132.045868,30.9628926 C131.214215,30.9628926 129.824132,30.6800826 129.824132,28.7842975 L129.824132,26.0592562 C129.824132,24.6667769 130.631818,23.866281 132.045868,23.866281 C133.455124,23.866281 134.26281,24.6667769 134.26281,26.0592562 L134.26281,28.7842975 C134.26281,30.6800826 132.870331,30.9628926 132.045868,30.9628926 M132.045868,22.0184298 C129.479008,22.0184298 127.885207,23.5259504 127.885207,25.9609917 L127.885207,28.9161157 C127.885207,31.3223967 129.479008,32.8131405 132.045868,32.8131405 C134.607934,32.8131405 136.201736,31.3223967 136.201736,28.9161157 L136.201736,25.9609917 C136.201736,23.5235537 134.607934,22.0184298 132.045868,22.0184298" id="Shape" fill="#221F1F" fill-rule="nonzero"></path>
                <rect id="Rectangle-path" fill="#221F1F" fill-rule="nonzero" x="56.4277686" y="22.1430579" width="1.9053719" height="10.4855372"></rect>
                <polygon id="Shape" fill="#221F1F" fill-rule="nonzero" points="67.0714876 22.1478512 67.0666942 28.9784298 62.4099174 22.1454545 60.7322314 22.1430579 60.7370248 32.6381818 61.017438 32.6381818 62.381157 32.6381818 62.6471901 32.6381818 62.6519835 25.661405 67.1697521 32.4776033 67.28 32.6381818 68.7012397 32.6381818 68.9744628 32.6381818 68.9744628 22.1478512"></polygon>
                <rect id="Rectangle-path" fill="#221F1F" fill-rule="nonzero" x="103.49405" y="22.1430579" width="1.91016529" height="10.4855372"></rect>
                <polygon id="Shape" fill="#221F1F" fill-rule="nonzero" points="114.058678 22.1478512 114.056281 28.9784298 109.399504 22.1454545 107.717025 22.1430579 107.729008 32.6381818 108.007025 32.6381818 109.363554 32.6381818 109.639174 32.6381818 109.643967 25.661405 114.156942 32.4776033 114.269587 32.6381818 115.68843 32.6381818 115.966446 32.6381818 115.966446 22.1478512"></polygon>
                <polygon id="Shape" fill="#221F1F" fill-rule="nonzero" points="102.463471 22.1598347 94.7317355 22.1598347 94.7317355 24.0100826 97.4975207 24.0100826 97.4975207 32.6381818 97.7755372 32.6381818 99.1344628 32.6381818 99.407686 32.6381818 99.407686 24.0100826 102.000909 24.0100826"></polygon>
                <polygon id="Shape" fill="#221F1F" fill-rule="nonzero" points="82.2497521 30.7879339 82.2497521 28.0724793 85.5859504 28.067686 85.8160331 26.2198347 82.2497521 26.2198347 82.2497521 24.0100826 86.2114876 24.0100826 86.2114876 22.1598347 80.6152066 22.1598347 80.3419835 22.157438 80.3419835 32.6381818 86.0029752 32.6381818 86.2738017 30.7879339"></polygon>
                <polygon id="Shape" fill="#221F1F" fill-rule="nonzero" points="95.9708264 7.90669421 95.8438017 8.13438017 92.9318182 13.4550413 89.9287603 8.13438017 89.813719 7.90669421 88.0761157 7.90669421 88.0761157 8.13438017 88.0761157 18.4042149 88.3541322 18.4042149 89.7106612 18.4042149 89.986281 18.4042149 89.986281 11.8540496 92.1672727 15.7486777 93.7107438 15.7486777 95.9085124 11.7989256 95.9157025 18.4066116 96.1002479 18.4042149 97.5119008 18.4042149 97.7875207 18.4042149 97.7875207 7.90669421 97.4759504 7.90669421"></polygon>
                <path d="M104.011736,16.7265289 C103.180083,16.7265289 101.79,16.443719 101.79,14.5503306 L101.79,11.8228926 C101.79,10.4304132 102.597686,9.62991736 104.011736,9.62991736 C105.428182,9.62991736 106.233471,10.4304132 106.233471,11.8228926 L106.233471,14.5479339 C106.233471,16.4413223 104.843388,16.7265289 104.011736,16.7265289 M104.011736,7.77966942 C101.447273,7.77966942 99.8558678,9.28958678 99.8558678,11.7246281 L99.8558678,14.6773554 C99.8558678,17.0836364 101.449669,18.5767769 104.011736,18.5767769 C106.578595,18.5767769 108.172397,17.0836364 108.172397,14.6773554 L108.172397,11.7246281 C108.172397,9.28958678 106.580992,7.77966942 104.011736,7.77966942" id="Shape" fill="#221F1F" fill-rule="nonzero"></path>
                <polygon id="Shape" fill="#221F1F" fill-rule="nonzero" points="116.546446 7.9138843 116.546446 14.7396694 111.889669 7.90909091 110.209587 7.90669421 110.216777 18.4042149 110.499587 18.4042149 111.856116 18.4042149 112.126942 18.4042149 112.131736 11.427438 116.644711 18.2364463 116.757355 18.4042149 118.176198 18.4042149 118.459008 18.4042149 118.459008 7.9138843"></polygon>
                <polygon id="Shape" fill="#221F1F" fill-rule="nonzero" points="136.021983 7.92107438 133.843388 7.92586777 131.808595 11.4873554 129.816942 8.17033058 129.670744 7.92586777 127.731818 7.92107438 130.643802 13.0523967 127.377107 18.4042149 129.661157 18.4042149 131.808595 14.6078512 133.97281 18.4042149 136.201736 18.4042149 132.985372 13.0523967"></polygon>
                <polygon id="Shape" fill="#221F1F" fill-rule="nonzero" points="122.71314 16.5515702 122.71314 13.833719 126.046942 13.8313223 126.274628 11.9834711 122.71314 11.9834711 122.71314 9.77371901 126.674876 9.77371901 126.674876 7.92586777 121.078595 7.92586777 120.800579 7.92107438 120.800579 18.4042149 126.466364 18.4042149 126.732397 16.5515702"></polygon>
                <path d="M91.5057851,35.7035537 L91.5057851,42.3447934 C91.5057851,44.1447107 90.3002479,44.5233884 89.2840496,44.5233884 C87.8771901,44.5233884 87.062314,43.727686 87.062314,42.3447934 L87.062314,35.7035537 L86.7459504,35.7083471 L85.3942149,35.7083471 L85.1569421,35.7035537 L85.1569421,42.4766116 C85.1569421,44.9164463 86.7028099,46.3736364 89.2840496,46.3736364 C91.9108264,46.3736364 93.4159504,44.9523967 93.4159504,42.4766116 L93.4159504,35.7035537 L91.5057851,35.7035537 L91.5057851,35.7035537 Z" id="Shape" fill="#221F1F" fill-rule="nonzero"></path>
                <path d="M115.618926,37.5298347 L116.695041,37.5298347 C117.363719,37.5298347 118.482975,37.7143802 118.482975,38.9534711 C118.482975,40.1158678 117.512314,40.3627273 116.695041,40.3627273 L115.618926,40.3627273 L115.618926,37.5298347 Z M120.553719,44.3939669 C120.441074,44.4059504 120.421901,44.4059504 120.373967,44.4035537 C120.040826,44.3867769 119.78438,44.2573554 119.499174,43.9242149 L117.922149,42.0236364 C119.019835,41.7504132 120.390744,40.9067769 120.390744,38.9534711 C120.390744,37.4603306 119.650165,36.681405 119.027025,36.2835537 C118.427851,35.9120661 117.646529,35.725124 116.711818,35.725124 L113.986777,35.725124 L113.713554,35.7227273 L113.713554,46.2034711 L113.99157,46.2034711 L115.345702,46.2034711 L115.618926,46.2034711 L115.618926,42.1746281 L115.659669,42.1746281 L117.869421,44.9212397 C118.154628,45.2831405 118.90719,46.2442149 120.062397,46.2442149 C120.189421,46.2442149 120.309256,46.227438 120.412314,46.2130579 L120.510579,46.1986777 L120.745455,46.1363636 L121.021074,44.2933058 C121.021074,44.2933058 120.699917,44.3771901 120.553719,44.3939669 L120.553719,44.3939669 Z" id="Shape" fill="#221F1F" fill-rule="nonzero"></path>
                <polygon id="Shape" fill="#221F1F" fill-rule="nonzero" points="124.364463 44.3484298 124.364463 41.6329752 127.698264 41.6305785 127.930744 39.7827273 124.364463 39.7827273 124.364463 37.5753719 128.326198 37.5753719 128.326198 35.7203306 122.729917 35.7203306 122.456694 35.7203306 122.456694 46.2010744 128.115289 46.2010744 128.383719 44.3484298"></polygon>
                <polygon id="Shape" fill="#221F1F" fill-rule="nonzero" points="83.6038843 37.5729752 83.6086777 37.4986777 83.6086777 35.7227273 78.1657851 35.7227273 77.892562 35.7203306 77.892562 46.2010744 79.7979339 46.2010744 79.7979339 41.7791736 83.0238843 41.7791736 83.488843 39.9265289 79.7979339 39.9265289 79.7979339 37.5729752"></polygon>
                <polygon id="Shape" fill="#221F1F" fill-rule="nonzero" points="102.34124 35.7227273 94.6095041 35.7227273 94.6095041 37.5729752 97.3752893 37.5729752 97.3752893 46.2010744 97.6485124 46.2010744 99.007438 46.2010744 99.2854545 46.2010744 99.2854545 37.5729752 101.873884 37.5705785"></polygon>
                <path d="M109.473802,35.7035537 L109.473802,42.3447934 C109.473802,44.1447107 108.263471,44.5233884 107.249669,44.5233884 C105.84281,44.5233884 105.027934,43.727686 105.027934,42.3447934 L105.027934,35.7035537 L104.709174,35.7083471 L103.355041,35.7083471 L103.120165,35.7035537 L103.120165,42.4766116 C103.120165,44.9164463 104.666033,46.3736364 107.247273,46.3736364 C109.87405,46.3736364 111.379174,44.9523967 111.379174,42.4766116 L111.379174,35.7035537 L109.473802,35.7035537 L109.473802,35.7035537 Z" id="Shape" fill="#221F1F" fill-rule="nonzero"></path>
                <path d="M133.467107,40.0271901 C132.443719,39.6245455 131.866116,39.3657025 131.866116,38.6634711 C131.866116,37.8677686 132.350248,37.4267769 133.229835,37.4267769 C133.848182,37.4267769 134.420992,37.5897521 134.804463,37.8773554 C134.804463,37.8773554 134.919504,37.9732231 134.955455,38.0067769 C134.991405,38.0427273 135.135207,38.2104959 135.135207,38.2104959 L136.151405,36.6790083 C136.151405,36.6790083 136.000413,36.4800826 135.906942,36.4033884 C135.813471,36.3242975 135.628926,36.1828926 135.298182,36.0271074 C134.82124,35.8066116 134.090248,35.5765289 133.169917,35.5765289 C131.290909,35.5765289 129.922397,36.892314 129.922397,38.7066116 C129.922397,40.6599174 131.389174,41.235124 132.563554,41.6952893 C133.613306,42.1099174 134.258017,42.3999174 134.258017,43.2004132 C134.258017,44.0776033 133.737934,44.5257851 132.707355,44.5257851 C132.314298,44.5257851 131.806198,44.4035537 131.41314,44.2381818 C131.223802,44.1590909 131.084793,44.0895868 130.948182,43.9745455 C130.806777,43.8571074 130.619835,43.6390083 130.619835,43.6390083 L129.483802,45.1633058 L129.723471,45.3622314 L129.809752,45.4317355 C130.686942,46.1219835 131.997934,46.3760331 132.661818,46.3760331 C134.375455,46.3760331 136.199339,45.5395868 136.199339,43.1884298 C136.201736,41.0985124 134.684628,40.5017355 133.467107,40.0271901" id="Shape" fill="#221F1F" fill-rule="nonzero"></path>
                <path d="M48.8829752,0.913140496 L67.7281818,0.913140496 C52.0250413,14.7564463 41.3477686,29.9083471 35.6915702,46.3760331 L25.3282645,46.3760331 C31.5836364,28.5086777 39.4352066,13.3519835 48.8829752,0.913140496" id="Shape" fill="#3FAE2A"></path>
                <path d="M37.3428926,0.913140496 L44.8780992,0.913140496 C34.6921488,14.2627273 26.9196694,29.5776033 21.5582645,46.3760331 L13.3136364,46.3760331 C19.5833884,28.0317355 27.5931405,12.7264463 37.3428926,0.913140496" id="Shape" fill="#95D600"></path>
                <path d="M25.8004132,0.913140496 L32.8658678,0.913140496 C21.9657025,14.9457851 14.1141322,30.1024793 9.30876033,46.3760331 L2.24090909,46.3760331 C7.77966942,28.9976033 15.6312397,13.8409091 25.8004132,0.913140496" id="Shape" fill="#D4EB8D"></path>
                <path d="M163.797273,28.3696694 L155.444793,28.3696694 C155.612562,31.5285124 156.525702,34.4932231 158.009256,37.0864463 L165.32157,37.0792562 C164.43,34.368595 163.900331,31.4350413 163.797273,28.3696694" id="Shape" fill="#009944" fill-rule="nonzero"></path>
                <path d="M165.32157,17.5150413 L158.009256,17.5078512 C156.525702,20.0986777 155.612562,23.0609917 155.444793,26.2222314 L163.797273,26.2222314 C163.900331,23.1544628 164.43,20.2233058 165.32157,17.5150413" id="Shape" fill="#009944" fill-rule="nonzero"></path>
                <path d="M159.423306,39.2410744 C162.038099,42.685124 165.980661,45.467686 170.594298,46.5054545 C168.80876,44.4371074 167.255702,41.9373554 166.131653,39.2410744 L159.423306,39.2410744 Z" id="Shape" fill="#026937" fill-rule="nonzero"></path>
                <path d="M170.594298,8.08404959 C165.980661,9.12661157 162.038099,11.9067769 159.423306,15.3484298 L166.131653,15.3484298 C167.255702,12.6521488 168.80876,10.1523967 170.594298,8.08404959" id="Shape" fill="#95D600" fill-rule="nonzero"></path>
                <path d="M174.100661,47.0207438 L174.100661,39.2410744 L168.45405,39.2410744 C169.856116,42.3064463 171.799835,44.9667769 174.100661,47.0207438" id="Shape" fill="#026937" fill-rule="nonzero"></path>
                <path d="M168.451653,15.3484298 L174.098264,15.3484298 L174.098264,7.56876033 C171.799835,9.62752066 169.856116,12.2830579 168.451653,15.3484298" id="Shape" fill="#95D600" fill-rule="nonzero"></path>
                <path d="M167.58405,37.0864463 L174.100661,37.0864463 L174.100661,28.3696694 L165.935124,28.3696694 C166.040579,31.4398347 166.613388,34.3661983 167.58405,37.0864463" id="Shape" fill="#009944" fill-rule="nonzero"></path>
                <path d="M165.932727,26.2198347 L174.098264,26.2198347 L174.098264,17.5054545 L167.581653,17.5054545 C166.613388,20.2233058 166.040579,23.1496694 165.932727,26.2198347" id="Shape" fill="#009944" fill-rule="nonzero"></path>
                <rect id="Rectangle-path" fill="#EA2127" fill-rule="nonzero" x="144.865785" y="7.77966942" width="1.0785124" height="39.2410744"></rect>
                <path d="M187.251322,16.5491736 L183.390248,16.5491736 L182.587355,19.2526446 L180.528595,19.2526446 L184.291405,8.02173554 L186.544298,8.02173554 L190.163306,19.2526446 L188.039835,19.2526446 L187.251322,16.5491736 Z M186.815124,14.9721488 L185.398678,9.73057851 L185.367521,9.73057851 L183.821653,14.9745455 L186.815124,14.9745455 L186.815124,14.9721488 Z" id="Shape" fill="#95D600" fill-rule="nonzero"></path>
                <path d="M191.560579,8.02413223 L194.489339,8.02413223 C197.998099,8.02413223 199.862727,9.92231405 199.862727,13.6395868 C199.862727,17.4191736 197.612231,19.2550413 194.489339,19.2550413 L191.560579,19.2550413 L191.560579,8.02413223 Z M193.619339,17.6756198 L194.311983,17.6756198 C196.629587,17.6756198 197.674545,16.1009917 197.674545,13.6371901 C197.674545,11.1733884 196.62719,9.59876033 194.311983,9.59876033 L193.619339,9.59876033 L193.619339,17.6756198 Z" id="Shape" fill="#95D600" fill-rule="nonzero"></path>
                <polygon id="Shape" fill="#95D600" fill-rule="nonzero" points="200.493058 8.02413223 202.714793 8.02413223 204.982066 16.678595 205.01562 16.678595 207.347603 8.02413223 209.468678 8.02413223 206.046198 19.2526446 203.87 19.2526446"></polygon>
                <path d="M215.851074,16.5491736 L211.992397,16.5491736 L211.187107,19.2526446 L209.128347,19.2526446 L212.893554,8.02173554 L215.14405,8.02173554 L218.763058,19.2526446 L216.639587,19.2526446 L215.851074,16.5491736 Z M215.414876,14.9721488 L214.000826,9.73057851 L213.967273,9.73057851 L212.421405,14.9745455 L215.414876,14.9745455 L215.414876,14.9721488 Z" id="Shape" fill="#95D600" fill-rule="nonzero"></path>
                <polygon id="Shape" fill="#95D600" fill-rule="nonzero" points="220.203471 8.02413223 222.648099 8.02413223 226.379752 16.8391736 226.413306 16.8391736 226.413306 8.02413223 228.277934 8.02413223 228.277934 19.2526446 225.816529 19.2526446 222.101653 10.502314 222.068099 10.502314 222.068099 19.2526446 220.203471 19.2526446"></polygon>
                <path d="M237.876694,19.0129752 C237.457273,19.2382645 236.460248,19.4156198 235.446446,19.4156198 C232.03595,19.4156198 230.28157,16.9206612 230.28157,13.6395868 C230.28157,10.3585124 232.03595,7.86355372 235.381736,7.86355372 C236.527355,7.86355372 237.457273,8.17033058 237.876694,8.33090909 L237.76405,10.1787603 C237.344628,9.97024793 236.685537,9.56760331 235.640579,9.56760331 C233.934132,9.56760331 232.469752,10.7252066 232.469752,13.6371901 C232.469752,16.5491736 233.934132,17.7067769 235.640579,17.7067769 C236.637603,17.7067769 237.294298,17.4647107 237.76405,17.1291736 L237.876694,19.0129752 Z" id="Shape" fill="#95D600" fill-rule="nonzero"></path>
                <rect id="Rectangle-path" fill="#95D600" fill-rule="nonzero" x="239.758099" y="8.02413223" width="2.05876033" height="11.2309091"></rect>
                <polygon id="Shape" fill="#95D600" fill-rule="nonzero" points="244.287851 8.02413223 246.732479 8.02413223 250.464132 16.8391736 250.497686 16.8391736 250.497686 8.02413223 252.362314 8.02413223 252.362314 19.2526446 249.903306 19.2526446 246.186033 10.502314 246.152479 10.502314 246.152479 19.2526446 244.287851 19.2526446"></polygon>
                <path d="M259.26,12.9613223 L262.898182,12.9613223 L262.898182,18.8332231 C262.318182,19.1376033 261.321157,19.4132231 259.856777,19.4132231 C256.252149,19.4132231 254.33719,16.9661983 254.33719,13.6371901 C254.33719,10.3081818 256.252149,7.86115702 259.856777,7.86115702 C261.143802,7.86115702 262.157603,8.15115702 262.591405,8.34528926 L262.481157,10.1931405 C261.822066,9.79049587 260.920909,9.50049587 259.890331,9.50049587 C257.702149,9.50049587 256.527769,11.3028099 256.527769,13.6371901 C256.527769,16.1633058 257.670992,17.7714876 259.777686,17.7714876 C260.259421,17.7714876 260.693223,17.6756198 260.966446,17.5629752 L260.966446,14.5383471 L259.26,14.5383471 L259.26,12.9613223 L259.26,12.9613223 Z" id="Shape" fill="#95D600" fill-rule="nonzero"></path>
                <polygon id="Shape" fill="#009944" fill-rule="nonzero" points="183.871983 28.4919008 180.557355 21.7691736 182.779091 21.7691736 184.967273 26.2557851 187.026033 21.7691736 189.245372 21.7691736 185.930744 28.5398347 185.930744 33.0000826 183.871983 33.0000826"></polygon>
                <path d="M194.146612,21.608595 C196.480992,21.608595 198.618843,23.3461983 198.618843,27.3846281 C198.618843,31.4230579 196.478595,33.1582645 194.146612,33.1582645 C191.814628,33.1582645 189.67438,31.4206612 189.67438,27.3846281 C189.67438,23.3438017 191.812231,21.608595 194.146612,21.608595 M194.146612,31.5812397 C195.450413,31.5812397 196.495372,30.4715702 196.495372,27.3846281 C196.495372,24.2952893 195.448017,23.1856198 194.146612,23.1856198 C192.845207,23.1856198 191.797851,24.2952893 191.797851,27.3846281 C191.795455,30.4715702 192.845207,31.5812397 194.146612,31.5812397" id="Shape" fill="#009944" fill-rule="nonzero"></path>
                <path d="M202.611736,21.7691736 L202.611736,29.0383471 C202.611736,30.9053719 203.172562,31.5165289 204.380496,31.5165289 C205.554876,31.5165289 206.132479,30.9053719 206.132479,29.0383471 L206.132479,21.7691736 L208.19124,21.7691736 L208.19124,29.0383471 C208.19124,31.9982645 206.484793,33.1582645 204.378099,33.1582645 C202.252231,33.1582645 200.548182,32.0006612 200.548182,29.0383471 L200.548182,21.7691736 L202.611736,21.7691736 Z" id="Shape" fill="#009944" fill-rule="nonzero"></path>
                <path d="M210.563967,21.7691736 L214.072727,21.7691736 C216.066777,21.7691736 217.418512,22.6703306 217.418512,24.7290909 C217.418512,26.1910744 216.502975,27.173719 215.247107,27.3678512 L215.247107,27.4157851 C215.666529,27.4804959 216.131488,27.6722314 216.488595,28.7195868 L217.950579,33.0000826 L215.764793,33.0000826 L214.652727,29.3475207 C214.379504,28.4631405 213.847438,28.1731405 213.094876,28.1731405 L212.627521,28.1731405 L212.627521,33.0024793 L210.56876,33.0024793 L210.56876,21.7691736 L210.563967,21.7691736 Z M213.46157,26.6584298 C214.554463,26.6584298 215.295041,26.0976033 215.295041,24.9519835 C215.295041,23.6673554 214.619174,23.3438017 213.46157,23.3438017 L212.622727,23.3438017 L212.622727,26.6584298 L213.46157,26.6584298 L213.46157,26.6584298 Z" id="Shape" fill="#009944" fill-rule="nonzero"></path>
                <polygon id="Shape" fill="#009944" fill-rule="nonzero" points="229.322893 23.7967769 229.289339 23.7967769 227.520579 32.997686 225.090331 32.997686 222.823058 21.7691736 224.752397 21.7691736 226.331818 30.4212397 226.360579 30.4212397 228.050248 21.7691736 230.559587 21.7691736 232.232479 30.4212397 232.266033 30.4212397 233.907769 21.7691736 235.774793 21.7691736 233.454793 32.997686 230.995785 32.997686"></polygon>
                <polygon id="Shape" fill="#009944" fill-rule="nonzero" points="237.332645 21.7691736 243.235702 21.7691736 243.235702 23.4109091 239.393802 23.4109091 239.393802 26.4019835 243.02719 26.4019835 243.02719 28.0413223 239.393802 28.0413223 239.393802 31.3559504 243.398678 31.3559504 243.398678 32.997686 237.332645 32.997686"></polygon>
                <path d="M251.358099,30.2966116 L247.494628,30.2966116 L246.691736,32.997686 L244.632975,32.997686 L248.398182,21.7691736 L250.648678,21.7691736 L254.267686,32.997686 L252.144215,32.997686 L251.358099,30.2966116 Z M250.919504,28.7171901 L249.505455,23.4732231 L249.471901,23.4732231 L247.926033,28.7171901 L250.919504,28.7171901 Z" id="Shape" fill="#009944" fill-rule="nonzero"></path>
                <polygon id="Shape" fill="#009944" fill-rule="nonzero" points="255.667355 21.7691736 257.726116 21.7691736 257.726116 31.3559504 261.424215 31.3559504 261.424215 32.997686 255.667355 32.997686"></polygon>
                <polygon id="Shape" fill="#009944" fill-rule="nonzero" points="263.796942 23.4109091 261.29 23.4109091 261.29 21.7691736 268.350661 21.7691736 268.350661 23.4109091 265.858099 23.4109091 265.858099 32.997686 263.796942 32.997686"></polygon>
                <polygon id="Shape" fill="#009944" fill-rule="nonzero" points="269.910909 21.7691736 271.972066 21.7691736 271.972066 26.3372727 275.301074 26.3372727 275.301074 21.7691736 277.362231 21.7691736 277.362231 32.997686 275.301074 32.997686 275.301074 28.0413223 271.972066 28.0413223 271.972066 32.997686 269.910909 32.997686"></polygon>
                <path d="M185.64314,35.3512397 C187.975124,35.3512397 190.115372,37.0912397 190.115372,41.1272727 C190.115372,45.1680992 187.972727,46.9033058 185.64314,46.9033058 C183.30876,46.9033058 181.168512,45.1657025 181.168512,41.1272727 C181.168512,37.0912397 183.30876,35.3512397 185.64314,35.3512397 M185.64314,45.326281 C186.946942,45.326281 187.989504,44.2166116 187.989504,41.1272727 C187.989504,38.0403306 186.944545,36.9282645 185.64314,36.9282645 C184.341736,36.9282645 183.29438,38.0403306 183.29438,41.1272727 C183.29438,44.2166116 184.339339,45.326281 185.64314,45.326281" id="Shape" fill="#026937" fill-rule="nonzero"></path>
                <path d="M192.102231,35.5142149 L195.320992,35.5142149 C197.638595,35.5142149 198.844132,36.798843 198.844132,38.9247107 C198.844132,41.0481818 197.638595,42.3519835 195.320992,42.3519835 L194.163388,42.3519835 L194.163388,46.7427273 L192.104628,46.7427273 L192.104628,35.5142149 L192.102231,35.5142149 Z M194.935124,40.7749587 C196.222149,40.7749587 196.782975,40.1470248 196.782975,38.9271074 C196.782975,37.7023967 196.222149,37.0912397 194.935124,37.0912397 L194.163388,37.0912397 L194.163388,40.7749587 L194.935124,40.7749587 Z" id="Shape" fill="#026937" fill-rule="nonzero"></path>
                <path d="M200.452314,35.5142149 L203.671074,35.5142149 C205.988678,35.5142149 207.194215,36.798843 207.194215,38.9247107 C207.194215,41.0481818 205.988678,42.3519835 203.671074,42.3519835 L202.513471,42.3519835 L202.513471,46.7427273 L200.454711,46.7427273 L200.454711,35.5142149 L200.452314,35.5142149 Z M203.28281,40.7749587 C204.569835,40.7749587 205.130661,40.1470248 205.130661,38.9271074 C205.130661,37.7023967 204.569835,37.0912397 203.28281,37.0912397 L202.511074,37.0912397 L202.511074,40.7749587 L203.28281,40.7749587 Z" id="Shape" fill="#026937" fill-rule="nonzero"></path>
                <path d="M213.034959,35.3512397 C215.369339,35.3512397 217.50719,37.0912397 217.50719,41.1272727 C217.50719,45.1680992 215.366942,46.9033058 213.034959,46.9033058 C210.702975,46.9033058 208.562727,45.1657025 208.562727,41.1272727 C208.562727,37.0912397 210.702975,35.3512397 213.034959,35.3512397 M213.034959,45.326281 C214.33876,45.326281 215.383719,44.2166116 215.383719,41.1272727 C215.383719,38.0403306 214.336364,36.9282645 213.034959,36.9282645 C211.733554,36.9282645 210.686198,38.0403306 210.686198,41.1272727 C210.683802,44.2166116 211.733554,45.326281 213.034959,45.326281" id="Shape" fill="#026937" fill-rule="nonzero"></path>
                <path d="M219.498843,35.5142149 L223.005207,35.5142149 C224.999256,35.5142149 226.350992,36.4153719 226.350992,38.4717355 C226.350992,39.9361157 225.433058,40.9187603 224.179587,41.1104959 L224.179587,41.1608264 C224.599008,41.2231405 225.063967,41.4172727 225.418678,42.4646281 L226.883058,46.7427273 L224.694876,46.7427273 L223.585207,43.092562 C223.311983,42.2081818 222.779917,41.9205785 222.024959,41.9205785 L221.56,41.9205785 L221.56,46.745124 L219.50124,46.745124 L219.50124,35.5142149 L219.498843,35.5142149 Z M222.39405,40.4034711 C223.486942,40.4034711 224.227521,39.8402479 224.227521,38.6970248 C224.227521,37.41 223.55405,37.088843 222.39405,37.088843 L221.557603,37.088843 L221.557603,40.4034711 L222.39405,40.4034711 Z" id="Shape" fill="#026937" fill-rule="nonzero"></path>
                <polygon id="Shape" fill="#026937" fill-rule="nonzero" points="230.23843 37.1559504 227.729091 37.1559504 227.729091 35.5142149 234.792149 35.5142149 234.792149 37.1559504 232.29719 37.1559504 232.29719 46.7427273 230.23843 46.7427273"></polygon>
                <path d="M238.363223,35.5142149 L238.363223,42.7833884 C238.363223,44.6504132 238.92405,45.2615702 240.129587,45.2615702 C241.306364,45.2615702 241.883967,44.6504132 241.883967,42.7833884 L241.883967,35.5142149 L243.942727,35.5142149 L243.942727,42.7833884 C243.942727,45.7433058 242.236281,46.9033058 240.12719,46.9033058 C238.003719,46.9033058 236.299669,45.7457025 236.299669,42.7833884 L236.299669,35.5142149 L238.363223,35.5142149 Z" id="Shape" fill="#026937" fill-rule="nonzero"></path>
                <polygon id="Shape" fill="#026937" fill-rule="nonzero" points="246.358595 35.5142149 248.80562 35.5142149 252.534876 44.3292562 252.56843 44.3292562 252.56843 35.5142149 254.435455 35.5142149 254.435455 46.7427273 251.97405 46.7427273 248.256777 37.9923967 248.223223 37.9923967 248.223223 46.7427273 246.358595 46.7427273"></polygon>
                <rect id="Rectangle-path" fill="#026937" fill-rule="nonzero" x="256.92562" y="35.5118182" width="2.05876033" height="11.2309091"></rect>
                <polygon id="Shape" fill="#026937" fill-rule="nonzero" points="263.05157 37.1559504 260.542231 37.1559504 260.542231 35.5142149 267.602893 35.5142149 267.602893 37.1559504 265.110331 37.1559504 265.110331 46.7427273 263.05157 46.7427273"></polygon>
                <rect id="Rectangle-path" fill="#026937" fill-rule="nonzero" x="269.175124" y="35.5118182" width="2.05876033" height="11.2309091"></rect>
                <polygon id="Shape" fill="#026937" fill-rule="nonzero" points="273.712066 35.5142149 279.617521 35.5142149 279.617521 37.1559504 275.770826 37.1559504 275.770826 40.1470248 279.406612 40.1470248 279.406612 41.7887603 275.770826 41.7887603 275.770826 45.1009917 279.775702 45.1009917 279.775702 46.7427273 273.712066 46.7427273"></polygon>
                <path d="M281.551653,44.5713223 C281.954298,44.8301653 282.838678,45.2639669 283.93157,45.2639669 C284.832727,45.2639669 285.638017,44.7654545 285.638017,43.6390083 C285.638017,42.833719 285.170661,42.481405 284.173636,41.932562 L283.126281,41.352562 C282.016612,40.741405 281.29281,39.8594215 281.29281,38.4094215 C281.29281,36.3961983 282.948926,35.3512397 284.832727,35.3512397 C286.023884,35.3512397 286.860331,35.6580165 287.179091,35.756281 L287.083223,37.4771074 C286.584711,37.2829752 285.92562,36.9953719 284.976529,36.9953719 C283.94595,36.9953719 283.416281,37.5418182 283.416281,38.3135537 C283.416281,39.1523967 283.979504,39.471157 284.607438,39.8282645 L285.812975,40.5017355 C287.133554,41.242314 287.759091,41.9493388 287.759091,43.5287603 C287.759091,45.8128099 286.134132,46.9057025 283.996281,46.9057025 C282.867438,46.9057025 281.999835,46.745124 281.436612,46.4071901 L281.551653,44.5713223 Z" id="Shape" fill="#026937" fill-rule="nonzero"></path>
            </g>
        </g>
    </g>
</svg>