<?xml version="1.0" encoding="iso-8859-1"?>
<!-- Generator: Adobe Illustrator 19.0.0, SVG Export Plug-In . SVG Version: 6.00 Build 0)  -->
<svg version="1.1" id="Capa_1" xmlns="http://www.w3.org/2000/svg" xmlns:xlink="http://www.w3.org/1999/xlink" x="0px" y="0px"
	 viewBox="0 0 480 480" style="enable-background:new 0 0 480 480;" xml:space="preserve">
<g>
	
		<linearGradient id="SVGID_1_" gradientUnits="userSpaceOnUse" x1="-30.875" y1="561.772" x2="-30.875" y2="615.255" gradientTransform="matrix(8 0 0 -8 455 4941)">
		<stop  offset="0" style="stop-color:#006DF0"/>
		<stop  offset="1" style="stop-color:#00E7F0"/>
	</linearGradient>
	<path style="fill:url(#SVGID_1_);" d="M208,232c-17.673,0-32-14.327-32-32s14.327-32,32-32s32,14.327,32,32h16
		c-0.043-23.397-16.934-43.361-40-47.28V136h-16v16.72c-26.112,4.572-43.575,29.446-39.003,55.559
		C165,231.142,184.789,247.866,208,248c17.673,0,32,14.327,32,32s-14.327,32-32,32s-32-14.327-32-32h-16
		c0.043,23.397,16.934,43.361,40,47.28V344h16v-16.72c26.112-4.572,43.575-29.446,39.003-55.559
		C251,248.858,231.211,232.134,208,232z"/>
	
		<linearGradient id="SVGID_2_" gradientUnits="userSpaceOnUse" x1="-30.875" y1="561.772" x2="-30.875" y2="615.255" gradientTransform="matrix(8 0 0 -8 455 4941)">
		<stop  offset="0" style="stop-color:#006DF0"/>
		<stop  offset="1" style="stop-color:#00E7F0"/>
	</linearGradient>
	<path style="fill:url(#SVGID_2_);" d="M208,416c-97.202,0-176-78.798-176-176S110.798,64,208,64s176,78.798,176,176
		C383.89,337.156,305.156,415.89,208,416z M208,80c-88.366,0-160,71.634-160,160s71.634,160,160,160s160-71.634,160-160
		C367.899,151.676,296.324,80.101,208,80z"/>
</g>
<g>
	
		<linearGradient id="SVGID_3_" gradientUnits="userSpaceOnUse" x1="-18.3052" y1="561.772" x2="-18.3052" y2="615.255" gradientTransform="matrix(8 0 0 -8 455 4941)">
		<stop  offset="0" style="stop-color:#006DF0"/>
		<stop  offset="1" style="stop-color:#00E7F0"/>
	</linearGradient>
	<path style="fill:url(#SVGID_3_);" d="M344,248c-4.418,0-8-3.582-8-8c-0.033-46.919-25.712-90.067-66.936-112.472
		c-3.809-2.239-5.082-7.141-2.843-10.951c2.138-3.637,6.732-4.989,10.499-3.089c46.371,25.2,75.252,73.736,75.28,126.512
		C352,244.418,348.418,248,344,248z"/>
	
		<linearGradient id="SVGID_4_" gradientUnits="userSpaceOnUse" x1="-28.8654" y1="561.772" x2="-28.8654" y2="615.255" gradientTransform="matrix(8 0 0 -8 455 4941)">
		<stop  offset="0" style="stop-color:#006DF0"/>
		<stop  offset="1" style="stop-color:#00E7F0"/>
	</linearGradient>
	<path style="fill:url(#SVGID_4_);" d="M240,115.808c-0.637,0.001-1.271-0.077-1.888-0.232c-9.86-2.379-19.969-3.58-30.112-3.576
		c-4.418,0-8-3.582-8-8s3.582-8,8-8c11.414-0.012,22.79,1.331,33.888,4c4.313,0.959,7.032,5.232,6.074,9.545
		C247.136,113.261,243.806,115.88,240,115.808z"/>
	
		<linearGradient id="SVGID_5_" gradientUnits="userSpaceOnUse" x1="-43.4307" y1="561.772" x2="-43.4307" y2="615.255" gradientTransform="matrix(8 0 0 -8 455 4941)">
		<stop  offset="0" style="stop-color:#006DF0"/>
		<stop  offset="1" style="stop-color:#00E7F0"/>
	</linearGradient>
	<path style="fill:url(#SVGID_5_);" d="M143.096,367.496c-1.334-0.003-2.647-0.341-3.816-0.984
		C92.909,341.312,64.028,292.776,64,240c0-4.418,3.582-8,8-8s8,3.582,8,8c0.033,46.919,25.712,90.067,66.936,112.472
		c3.879,2.115,5.31,6.974,3.195,10.853C148.727,365.9,146.028,367.5,143.096,367.496L143.096,367.496z"/>
	
		<linearGradient id="SVGID_6_" gradientUnits="userSpaceOnUse" x1="-32.8885" y1="561.772" x2="-32.8885" y2="615.255" gradientTransform="matrix(8 0 0 -8 455 4941)">
		<stop  offset="0" style="stop-color:#006DF0"/>
		<stop  offset="1" style="stop-color:#00E7F0"/>
	</linearGradient>
	<path style="fill:url(#SVGID_6_);" d="M208,384c-11.414,0.012-22.79-1.331-33.888-4c-4.32-0.925-7.073-5.177-6.148-9.497
		c0.925-4.32,5.177-7.073,9.497-6.148c0.141,0.03,0.28,0.064,0.419,0.102c9.864,2.369,19.975,3.559,30.12,3.544c4.418,0,8,3.582,8,8
		S212.418,384,208,384z"/>
	
		<linearGradient id="SVGID_7_" gradientUnits="userSpaceOnUse" x1="-26.875" y1="561.772" x2="-26.875" y2="615.255" gradientTransform="matrix(8 0 0 -8 455 4941)">
		<stop  offset="0" style="stop-color:#006DF0"/>
		<stop  offset="1" style="stop-color:#00E7F0"/>
	</linearGradient>
	<path style="fill:url(#SVGID_7_);" d="M272,32h-64C93.125,32,0,125.125,0,240s93.125,208,208,208h64
		c114.822-0.128,207.872-93.178,208-208C480,96.528,358.4,32,272,32z M16,240c0-106.039,85.961-192,192-192s192,85.961,192,192
		s-85.961,192-192,192C102.013,431.877,16.123,345.987,16,240z M289.984,431.128c105.558-45.241,154.454-167.488,109.213-273.046
		C378.226,109.151,339.286,70.126,290.4,49.048C367.896,57.352,464,117.472,464,240
		C463.869,339.016,388.554,421.738,289.984,431.128z"/>
</g>
<g>
</g>
<g>
</g>
<g>
</g>
<g>
</g>
<g>
</g>
<g>
</g>
<g>
</g>
<g>
</g>
<g>
</g>
<g>
</g>
<g>
</g>
<g>
</g>
<g>
</g>
<g>
</g>
<g>
</g>
</svg>
